<svg data-v-423bf9ae="" xmlns="http://www.w3.org/2000/svg" viewBox="0 0 427 121" class="iconLeft"><!----><!----><!----><g data-v-423bf9ae="" id="9063cfdb-c741-4fa1-b2a0-3bd271c42605" fill="#1E2314" transform="matrix(6.030150413513184,0,0,6.030150413513184,143.35316467285156,10.056059837341309)"><path d="M1.46 12.96C1.46 13.15 1.61 13.30 1.79 13.30C1.99 13.30 2.14 13.15 2.14 12.96L2.14 8.75L6.26 8.75C6.45 8.75 6.61 8.60 6.61 8.41C6.61 8.22 6.45 8.06 6.26 8.06L2.14 8.06L2.14 4.19L6.85 4.19C7.03 4.19 7.18 4.03 7.18 3.84C7.18 3.65 7.03 3.50 6.85 3.50L1.83 3.50L1.78 3.50C1.60 3.51 1.46 3.65 1.46 3.84L1.46 12.96ZM14.84 6.44C14.66 6.44 14.50 6.58 14.50 6.78L14.50 7.78C13.92 6.97 12.98 6.44 11.93 6.44C10.12 6.44 8.68 7.99 8.68 9.87C8.68 11.75 10.12 13.30 11.93 13.30C12.98 13.30 13.92 12.75 14.50 11.94L14.50 12.96C14.50 13.15 14.66 13.30 14.84 13.30C15.02 13.30 15.18 13.15 15.18 12.96L15.18 6.78C15.18 6.58 15.02 6.44 14.84 6.44ZM11.93 12.63C10.53 12.63 9.35 11.41 9.35 9.87C9.35 8.33 10.53 7.10 11.93 7.10C13.34 7.10 14.50 8.33 14.50 9.87C14.50 11.41 13.34 12.63 11.93 12.63ZM18.10 12.96L18.10 12.96C18.10 13.15 18.26 13.30 18.44 13.30L18.44 13.30C18.63 13.30 18.79 13.15 18.79 12.96L18.79 6.78L18.79 6.78C18.79 6.58 18.63 6.44 18.44 6.44L18.44 6.44C18.26 6.44 18.10 6.58 18.10 6.78ZM18.10 4.86L18.10 4.86C18.10 5.05 18.26 5.22 18.44 5.22L18.44 5.22C18.63 5.22 18.79 5.05 18.79 4.86L18.79 4.54L18.79 4.54C18.79 4.35 18.63 4.20 18.44 4.20L18.44 4.20C18.26 4.20 18.10 4.35 18.10 4.54ZM22.02 12.96C22.02 13.16 22.18 13.30 22.37 13.30C22.54 13.30 22.69 13.16 22.69 12.96L22.69 9.95C22.69 9.93 22.69 9.90 22.72 9.84C22.82 9.56 23.09 8.86 23.55 8.25C24.02 7.63 24.64 7.13 25.54 7.13C25.72 7.13 25.87 6.97 25.87 6.79C25.87 6.59 25.72 6.45 25.54 6.45C24.22 6.45 23.31 7.32 22.79 8.13C22.75 8.19 22.72 8.25 22.69 8.30L22.69 6.79C22.69 6.59 22.54 6.45 22.37 6.45C22.18 6.45 22.02 6.59 22.02 6.79L22.02 12.96ZM27.89 8.33L27.89 8.33C27.90 11.07 29.97 13.30 32.62 13.30L32.62 13.30C35.24 13.30 37.30 11.07 37.31 8.33L37.31 8.33C37.30 5.59 35.24 3.36 32.62 3.36L32.62 3.36C29.97 3.36 27.90 5.59 27.89 8.33ZM28.57 8.33L28.57 8.33C28.57 5.91 30.39 4.06 32.62 4.06L32.62 4.06C34.78 4.06 36.60 5.91 36.61 8.33L36.61 8.33C36.60 10.72 34.78 12.61 32.62 12.61L32.62 12.61C30.39 12.61 28.57 10.72 28.57 8.33ZM39.75 11.90L39.75 11.90C40.56 12.54 41.86 13.30 43.36 13.31L43.36 13.31C44.34 13.31 45.22 13.02 45.88 12.54L45.88 12.54C46.54 12.07 46.98 11.37 46.98 10.58L46.98 10.58C46.98 9.80 46.55 9.16 45.91 8.74L45.91 8.74C45.26 8.30 44.39 8.02 43.41 7.84L43.39 7.84L43.39 7.84C42.50 7.67 41.78 7.43 41.29 7.10L41.29 7.10C40.80 6.76 40.57 6.40 40.56 5.91L40.56 5.91C40.56 5.40 40.84 4.93 41.33 4.56L41.33 4.56C41.82 4.21 42.53 3.98 43.33 3.98L43.33 3.98C44.41 3.98 45.25 4.51 46.02 5.01L46.02 5.01C46.16 5.11 46.35 5.07 46.44 4.93L46.44 4.93C46.54 4.77 46.49 4.59 46.35 4.49L46.35 4.49C45.58 3.99 44.62 3.36 43.33 3.36L43.33 3.36C42.41 3.36 41.58 3.63 40.96 4.07L40.96 4.07C40.35 4.52 39.94 5.17 39.94 5.91L39.94 5.91C39.94 6.64 40.35 7.22 40.95 7.62L40.95 7.62C41.55 8.02 42.35 8.27 43.26 8.44L43.29 8.44L43.29 8.44C44.24 8.62 45.02 8.89 45.56 9.24L45.56 9.24C46.09 9.60 46.35 10.02 46.35 10.58L46.35 10.58C46.35 11.13 46.06 11.65 45.51 12.04L45.51 12.04C44.98 12.43 44.21 12.68 43.36 12.68L43.36 12.68C42.08 12.70 40.87 12.01 40.14 11.42L40.14 11.42C40.01 11.31 39.82 11.33 39.70 11.47L39.70 11.47C39.61 11.59 39.62 11.79 39.75 11.90Z"></path></g><defs data-v-423bf9ae=""><linearGradient data-v-423bf9ae="" gradientTransform="rotate(25)" id="67ae4e9c-f27d-42ab-a445-767528e67b3f" x1="0%" y1="0%" x2="100%" y2="0%"><stop data-v-423bf9ae="" offset="0%" style="stop-color: rgb(253, 146, 69); stop-opacity: 1;"></stop><stop data-v-423bf9ae="" offset="100%" style="stop-color: rgb(6, 169, 107); stop-opacity: 1;"></stop></linearGradient></defs><g data-v-423bf9ae="" id="53605e22-f79b-4aab-9179-420e57c80b47" transform="matrix(1.1577503681182861,0,0,1.1577503681182861,-7.171016216278076,-7.405843734741211)" stroke="none" fill="url(#67ae4e9c-f27d-42ab-a445-767528e67b3f)"><path d="M23.6 6.9c-2 0-3.9.8-5.3 2.2l-2.5 2.5L14 9.8c-1.2-1.2-3.1-1.2-4.2 0-1.2 1.2-1.2 3.1 0 4.2l1.8 1.8-2.5 2.5c-2.9 2.9-2.9 7.7 0 10.6 1.4 1.4 3.3 2.2 5.3 2.2s3.9-.8 5.3-2.2l2.5-2.5 1.8 1.8c.6.6 1.4.9 2.1.9.7 0 1.5-.3 2.1-.9 1.2-1.2 1.2-3.1 0-4.2l-1.8-1.8 2.5-2.5c2.9-2.9 2.9-7.7 0-10.6-1.4-1.4-3.3-2.2-5.3-2.2zm0 6c.2 0 .7.1 1.1.4.6.6.6 1.5 0 2.1l-2.5 2.5-2.1-2.1 2.4-2.5c.4-.4.8-.4 1.1-.4zM64 14.2c-1.7 0-3 1.3-3 3v6.3h-4.5C50.7 23.5 46 28.2 46 34c0 1.6.4 3.1 1 4.5h-5.5C35.7 38.5 31 43.2 31 49c0 1.6.4 3.1 1 4.5h-.5C25.7 53.5 21 58.2 21 64s4.7 10.5 10.5 10.5h.5c-.7 1.4-1 2.9-1 4.5 0 5.8 4.7 10.5 10.5 10.5H47c-.7 1.4-1 2.9-1 4.5 0 5.8 4.7 10.5 10.5 10.5h15c5.8 0 10.5-4.7 10.5-10.5 0-1.6-.4-3.1-1-4.5h5.5C92.3 89.5 97 84.8 97 79c0-1.6-.4-3.1-1-4.5h.5c5.8 0 10.5-4.7 10.5-10.5s-4.7-10.5-10.5-10.5H96c.7-1.4 1-2.9 1-4.5 0-5.8-4.7-10.5-10.5-10.5H81c.7-1.4 1-2.9 1-4.5 0-5.8-4.7-10.5-10.5-10.5H67v-6.3c0-1.7-1.3-3-3-3zM15.8 20l2.1 2.1-2.5 2.5c-.4.4-.8.4-1.1.4-.2 0-.7-.1-1.1-.4-.4-.5-.4-1.5.1-2.1l2.5-2.5zm40.7 9.5h11c.9 1.3 1.5 2.8 1.5 4.5 0 1.7-.6 3.2-1.5 4.5h-11c-2.5 0-4.5-2-4.5-4.5s2-4.5 4.5-4.5zm-15 15h34c.9 1.3 1.5 2.8 1.5 4.5 0 1.7-.6 3.2-1.5 4.5h-34c-2.5 0-4.5-2-4.5-4.5s2-4.5 4.5-4.5zm-10 15h14.1c-1 1.3-1.6 2.9-1.6 4.6 0 1.6.5 3.2 1.5 4.4h-14c-2.5 0-4.5-2-4.5-4.5s2-4.5 4.5-4.5zm26.8 0h24.3c.9 1.3 1.5 2.8 1.5 4.5 0 1.7-.7 3.2-1.6 4.5H58.4c.9-1.2 1.5-2.8 1.5-4.4 0-1.7-.6-3.3-1.6-4.6zm-16.8 15h34c.9 1.3 1.5 2.8 1.5 4.5 0 1.7-.6 3.2-1.5 4.5h-34c-2.5 0-4.5-2-4.5-4.5s2-4.5 4.5-4.5zm62.9 12.4c-2 0-3.9.8-5.3 2.2-2.9 2.9-2.9 7.7 0 10.6l2.5 2.5-1.8 1.8c-1.2 1.2-1.2 3.1 0 4.2.6.6 1.4.9 2.1.9.7 0 1.5-.3 2.1-.9l1.8-1.8 2.5 2.5a7.49 7.49 0 0 0 10.6 0c2.9-2.9 2.9-7.7 0-10.6l-2.5-2.5 1.8-1.8c1.2-1.2 1.2-3.1 0-4.2-1.2-1.2-3.1-1.2-4.2 0l-1.8 1.8-2.5-2.5a7.49 7.49 0 0 0-5.3-2.2zm-47.9 2.6h11c.9 1.3 1.5 2.8 1.5 4.5 0 1.7-.6 3.2-1.5 4.5h-11c-2.5 0-4.5-2-4.5-4.5s2-4.5 4.5-4.5zm47.9 3.4c.2 0 .7.1 1.1.4l2.5 2.5-2.2 2.1-2.5-2.5c-.6-.6-.6-1.5 0-2.1.4-.4.8-.4 1.1-.4zm7.7 7.2l2.5 2.5c.6.5.6 1.5.1 2.1-.4.4-.8.4-1.1.4-.2 0-.7-.1-1.1-.4l-2.5-2.5 2.1-2.1z"></path></g><!----></svg>